<svg width="268" height="32" viewBox="0 0 268 32" fill="none" xmlns="http://www.w3.org/2000/svg">
<g clip-path="url(#clip0_434_41)">
<path d="M11.4639 19.4835C13.4718 17.4782 16.1831 14.7829 16.737 14.2217C17.5582 13.3901 18.2301 12.682 18.2301 12.6484L21.0464 9.84249L22.419 8.43652H25.9339C28.1918 8.43652 29.4486 8.48446 29.4486 8.57043C29.4486 8.73298 27.4157 10.869 24.0961 14.1943C22.736 15.5567 20.9314 17.3679 20.086 18.2191C17.6897 20.6319 12.9908 25.3281 11.0254 27.2747C10.0448 28.2458 8.75515 29.5263 8.15942 30.1201L7.0762 31.1998H3.53816C1.4788 31.1998 0 31.1485 0 31.077C0 31.0095 0.05367 30.9342 0.119196 30.9096C0.258407 30.8575 5.95699 25.0784 11.4639 19.4835Z" fill="white"/>
<path fill-rule="evenodd" clip-rule="evenodd" d="M3.95166 0.101827C3.95166 0.157798 5.02787 1.33278 6.34324 2.7129L8.7347 5.22222L17.6574 5.22516C25.9216 5.22784 26.6598 5.24659 27.6635 5.48024C29.0617 5.80563 29.8377 6.12552 30.8017 6.77346C32.8418 8.14488 34.4096 10.3646 35.0969 12.8546C35.4619 14.177 35.5001 17.6761 35.1633 18.9471C34.6793 20.7746 33.2892 23.1874 32.0423 24.3646C31.1308 25.2251 29.9003 25.9737 28.6834 26.4084L27.4723 26.8407L20.9165 26.8864C15.8954 26.9212 14.3067 26.9716 14.1304 27.1012C13.6019 27.4902 9.45395 31.7952 9.51234 31.8944C9.60642 32.0542 27.1682 32.0239 28.2372 31.8622C29.1869 31.7184 29.3269 31.6798 30.9143 31.125C34.3201 29.9347 37.5007 26.9745 39.2514 23.3659C39.7931 22.2493 40.3521 20.4954 40.6192 19.0753C40.9422 17.3564 40.9125 14.1845 40.5565 12.3859C39.9712 9.42994 38.5674 6.68549 36.507 4.46902C35.0085 2.85698 33.4559 1.7535 31.488 0.902022C29.347 -0.0244421 29.7624 6.18498e-05 16.1764 6.18498e-05C9.45281 6.18498e-05 3.95166 0.0458561 3.95166 0.101827ZM27.0896 17.039C27.0587 17.1311 26.8852 17.6583 26.7039 18.2107C26.5226 18.763 26.3207 19.3354 26.2552 19.4827C26.1897 19.63 25.9022 20.4435 25.6162 21.2904C25.3304 22.1373 24.9856 23.1559 24.8502 23.554C24.4929 24.6039 24.5051 24.6379 25.2413 24.6379C25.5919 24.6379 25.8795 24.6228 25.8804 24.6044C25.8847 24.5214 27.6504 19.4178 28.023 18.4115C28.1594 18.0433 28.311 17.5461 28.3598 17.3068L28.4487 16.8716H27.7971C27.3907 16.8716 27.1245 16.9346 27.0896 17.039ZM28.8108 18.9245C28.8108 19.5659 28.846 19.6576 29.1584 19.8283C29.3495 19.9328 29.7882 20.1782 30.1335 20.3736L30.7612 20.7289L30.2004 21.0277C29.8919 21.192 29.6108 21.3647 29.5757 21.4116C29.5407 21.4583 29.3542 21.5694 29.1614 21.6585C28.8468 21.8036 28.8108 21.8884 28.8108 22.4848C28.8108 22.8502 28.8613 23.1819 28.9229 23.2219C29.0216 23.2861 30.0124 22.7605 31.8704 21.6585C32.4028 21.3427 32.4469 21.2749 32.4823 20.7164L32.5207 20.1143L31.3987 19.478C29.8779 18.6154 29.0922 18.2107 28.939 18.2107C28.8685 18.2107 28.8108 18.5319 28.8108 18.9245ZM23.182 18.7293C22.8556 18.9227 22.1385 19.331 21.5884 19.6366L20.5882 20.1923L20.5498 20.7943C20.5162 21.3248 20.554 21.4274 20.8685 21.6566C21.427 22.0635 24.0733 23.4998 24.1345 23.4292C24.1647 23.3944 24.1618 23.0311 24.128 22.622C24.0673 21.888 24.0587 21.8742 23.4747 21.5859C23.1492 21.4251 22.7471 21.1819 22.5813 21.0453L22.2798 20.7972L23.1549 20.3211L24.0302 19.8449L24.0685 19.0947C24.1127 18.2258 24.0646 18.206 23.182 18.7293Z" fill="white"/>
<path fill-rule="evenodd" clip-rule="evenodd" d="M164.904 2.03654L161.519 2.14352V15.3637C161.519 26.0926 161.608 28.6635 161.994 29.0084C162.333 29.3118 165.924 29.4049 174.552 29.3346L186.635 29.2362L187.769 27.5529C188.94 25.8162 189.216 24.2986 188.591 23.0395C188.249 22.3516 187.77 22.316 178.868 22.316H169.505V12.2601C169.505 2.98442 169.458 2.19327 168.897 2.06684C168.563 1.99128 166.767 1.97781 164.904 2.03654ZM191.033 15.7699V29.4233H194.853H198.673V15.7699V2.11659H194.853H191.033V15.7699ZM202.492 15.7699V29.4233H206.312H210.131V20.7368V12.0498L218.395 20.9238L226.658 29.7973L229.94 29.7921C231.745 29.7895 233.574 29.6855 234.003 29.5617L234.785 29.3361V15.7262V2.11659H230.791H226.798V10.8918V19.6673L218.552 10.8962L210.305 2.12519L206.398 2.12107L202.492 2.11659V15.7699ZM241.69 3.05025C240.588 3.66858 239.721 4.56521 238.912 5.92194L237.736 7.89438L237.627 15.0076C237.553 19.8839 237.655 22.6448 237.952 23.7876C238.524 25.9875 241.057 28.8277 242.945 29.384C243.816 29.6406 248.51 29.7939 255.545 29.7951L266.756 29.7973L266.656 26.3372L266.556 22.8771L256.595 22.778L246.632 22.6789L245.917 21.6988C245.523 21.1598 245.202 20.4049 245.202 20.0212C245.202 19.3594 245.637 19.3235 253.648 19.3235C261.971 19.3235 262.105 19.3112 262.788 18.4819C264.113 16.8742 265.761 13.7073 265.562 13.1504C265.391 12.6708 263.917 12.5904 255.303 12.5904C249.174 12.5904 245.161 12.4486 245.034 12.2272C244.691 11.6287 245.779 9.77555 246.754 9.29674C247.375 8.99188 250.18 8.84974 255.568 8.84974C261.364 8.84974 263.62 8.72517 264.027 8.38216C264.906 7.64151 267.077 3.72693 267.077 2.88267C267.077 2.12519 266.944 2.11696 255.184 2.13417C243.317 2.15137 243.288 2.15325 241.69 3.05025Z" fill="white"/>
<path fill-rule="evenodd" clip-rule="evenodd" d="M102.499 2.47057C93.813 2.62917 92.097 2.75224 91.2137 3.28041C90.0168 3.996 88.1872 6.0021 87.5903 7.25409C86.8983 8.70508 86.2552 13.3629 86.3403 16.3109C86.5101 22.1998 87.3566 25.1025 89.4945 27.1247C92.0943 29.5838 92.0616 29.5782 105.357 29.7058L117.417 29.8214L119.16 26.9459C121.979 22.2922 122.925 22.67 108.448 22.67C96.3753 22.67 95.9669 22.6464 95.0801 21.8946C94.5405 21.4375 94.1651 20.7469 94.1651 20.2113V19.3034H104.153H114.14L115.558 17.3396C116.337 16.2597 117.167 14.9837 117.403 14.5049C118.355 12.5647 118.39 12.5703 105.611 12.5703H93.771L93.9953 11.7286C94.1186 11.2656 94.6783 10.4239 95.2395 9.85833L96.2596 8.82965H107.2H118.139L119.087 7.18527C119.607 6.28078 120.229 5.22854 120.468 4.84737C120.97 4.04537 120.788 3.84076 123.121 7.8294C123.863 9.09972 125.259 11.4855 126.222 13.1314C128.923 17.7511 130.026 19.6251 131.872 22.7321C132.809 24.3095 134.045 26.4563 134.618 27.5033L135.659 29.4069L139.459 29.3115L143.259 29.2161L145.967 24.5403C147.456 21.9686 149.328 18.7704 150.127 17.4331C151.584 14.9938 152.963 12.6619 155.212 8.82965C155.876 7.69811 156.955 5.87268 157.61 4.77331C158.265 3.67393 158.748 2.71782 158.685 2.64899C158.404 2.34712 152.45 2.02355 151.331 2.24949C150.176 2.4829 149.86 2.90448 146.523 8.65533C144.558 12.041 142.196 16.1673 141.272 17.8251C139.894 20.2988 139.506 20.76 139.102 20.3994C138.832 20.1578 138.611 19.835 138.611 19.6827C138.611 19.5301 137.341 17.236 135.79 14.585C134.238 11.934 132.559 9.03313 132.057 8.13912C129.764 4.05135 128.838 2.6546 128.277 2.43952C127.599 2.17917 117.803 2.19114 102.499 2.47057ZM50.7612 16.1482V29.8259L63.8692 29.708L76.9772 29.5902L78.7133 28.5922C81.1419 27.1958 82.7905 25.3805 83.9604 22.8133C84.917 20.7144 84.9632 20.3792 84.958 15.5628C84.9531 10.8275 84.8951 10.3951 84.0302 8.61906C82.8207 6.13602 80.8322 4.24475 78.3984 3.26395C76.5234 2.50797 75.8237 2.47057 63.5956 2.47057H50.7612V16.1482ZM75.0369 9.50221C77.1855 10.6569 77.6717 11.7978 77.6717 15.6836C77.6717 18.7075 77.5723 19.2664 76.8386 20.3744C75.44 22.4875 74.5813 22.67 66.0505 22.67H58.4003V15.7498V8.82965L66.1262 8.8476C72.683 8.86294 74.0313 8.96206 75.0369 9.50221Z" fill="white"/>
</g>
<defs>
<clipPath id="clip0_434_41">
<rect width="267.077" height="32" fill="white"/>
</clipPath>
</defs>
</svg>
